<?xml version="1.0" standalone="no"?>
<!DOCTYPE svg PUBLIC "-//W3C//DTD SVG 20010904//EN"
 "http://www.w3.org/TR/2001/REC-SVG-20010904/DTD/svg10.dtd">
<svg version="1.0" xmlns="http://www.w3.org/2000/svg"
 width="117.000000pt" height="176.000000pt" viewBox="0 0 117.000000 176.000000"
 preserveAspectRatio="xMidYMid meet">
<metadata>
Created by potrace 1.10, written by Peter Selinger 2001-2011
</metadata>
<g transform="translate(0.000000,176.000000) scale(0.050000,-0.050000)"
fill="#000000" stroke="none">
<path d="M720 3475 c1 -31 22 -55 65 -77 125 -61 175 -202 175 -490 l0 -247
-164 84 c-410 209 -787 -19 -785 -475 1 -470 469 -705 874 -439 60 40 75 43
75 18 0 -63 -62 -144 -270 -349 -539 -532 -631 -791 -388 -1086 105 -127 209
-174 452 -202 252 -29 294 -47 329 -142 36 -99 126 -101 167 -3 42 101 74 119
164 94 163 -45 444 3 566 98 l50 38 -43 57 c-43 57 -45 58 -210 33 -93 -14
-174 25 -317 153 l-110 99 -7 255 c-4 141 -1 419 7 618 l14 362 141 -72 c418
-215 837 44 811 502 -25 451 -497 669 -883 407 l-73 -50 -4 165 c-7 320 1 367
97 540 18 33 25 77 18 105 l-12 49 -369 0 -370 0 0 -45z m606 -66 c25 -10 22
-25 -16 -95 -61 -113 -89 -570 -42 -683 40 -96 81 -93 306 22 l184 94 108 -24
c400 -90 491 -661 134 -843 -167 -84 -325 -74 -482 31 -250 168 -249 170 -264
-593 -12 -577 -10 -631 23 -706 66 -148 306 -328 443 -333 l50 -2 -50 -20
c-35 -14 -100 -14 -211 1 -181 25 -275 6 -311 -62 -21 -39 -23 -39 -76 12 -66
63 -137 86 -328 103 -205 18 -272 43 -371 136 -253 242 -205 408 258 884 360
371 442 510 368 623 -43 65 -108 53 -260 -48 -499 -331 -956 351 -502 749 112
98 257 93 488 -15 289 -135 299 -126 294 271 -4 267 -40 416 -112 461 -56 34
286 69 369 37z"/>
<path d="M428 2572 c-293 -132 -208 -604 108 -601 159 2 463 169 503 277 57
150 -428 407 -611 324z m218 -99 c35 -15 119 -63 186 -106 l121 -79 -111 -81
c-207 -151 -276 -172 -383 -117 -244 127 -67 490 187 383z"/>
<path d="M1640 2585 c-345 -170 -433 -280 -314 -393 341 -321 674 -302 726 42
31 212 -234 438 -412 351z m251 -154 c83 -83 55 -322 -42 -359 -93 -35 -261
26 -409 148 l-70 58 40 40 c146 147 390 204 481 113z"/>
<path d="M895 1380 c-165 -130 -415 -527 -415 -660 0 -265 377 -506 539 -344
l61 61 -1 416 c-2 546 -36 644 -184 527z m83 -565 l2 -375 -85 0 c-369 0 -407
316 -83 687 169 194 163 204 166 -312z"/>
</g>
</svg>
